<?xml version="1.0" encoding="UTF-8" standalone="no"?>
<!DOCTYPE svg PUBLIC "-//W3C//DTD SVG 1.1//EN"
 "http://www.w3.org/Graphics/SVG/1.1/DTD/svg11.dtd">
<!-- Generated by graphviz version 2.43.0 (0)
 -->
<!-- Title: %3 Pages: 1 -->
<svg width="490pt" height="124pt"
 viewBox="0.00 0.00 489.57 124.00" xmlns="http://www.w3.org/2000/svg" xmlns:xlink="http://www.w3.org/1999/xlink">
<g id="graph0" class="graph" transform="scale(1 1) rotate(0) translate(4 120)">
<title>%3</title>
<polygon fill="white" stroke="transparent" points="-4,4 -4,-120 485.57,-120 485.57,4 -4,4"/>
<!-- 1&#45;&gt;1 -->
<g id="edge1" class="edge">
<title>1&#45;&gt;1</title>
<path fill="none" stroke="#cccccc" stroke-width="3" d="M229.96,-105.38C239.16,-104.82 246,-102.36 246,-98 246,-93.64 239.16,-91.18 229.96,-90.62"/>
<polygon fill="#cccccc" stroke="#cccccc" stroke-width="3" points="229.91,-103.63 224.96,-105.5 230,-107.13 229.91,-103.63"/>
<polygon fill="#cccccc" stroke="#cccccc" stroke-width="3" points="230,-88.87 224.96,-90.5 229.91,-92.37 230,-88.87"/>
<text text-anchor="middle" x="248.22" y="-95.6" font-family="Helvetica,sans-Serif" font-size="8.00">1</text>
</g>
<!-- 1&#45;&gt;2 -->
<g id="edge2" class="edge">
<title>1&#45;&gt;2</title>
<path fill="none" stroke="#cccccc" stroke-width="3.01" d="M167.28,-84.64C139.55,-70.78 94.62,-48.31 65.19,-33.59"/>
<polygon fill="#cccccc" stroke="#cccccc" stroke-width="3.01" points="65.86,-31.97 60.6,-31.3 64.29,-35.1 65.86,-31.97"/>
<text text-anchor="middle" x="121.22" y="-55.6" font-family="Helvetica,sans-Serif" font-size="8.00">1</text>
</g>
<!-- 1&#45;&gt;3 -->
<g id="edge3" class="edge">
<title>1&#45;&gt;3</title>
<path fill="none" stroke="#cccccc" stroke-width="0.61" d="M182.67,-80.46C176.02,-68.67 167.03,-52.73 159.87,-40.03"/>
<polygon fill="#cccccc" stroke="#cccccc" stroke-width="0.61" points="161.3,-39.01 157.32,-35.52 158.25,-40.73 161.3,-39.01"/>
<text text-anchor="middle" x="177.56" y="-55.6" font-family="Helvetica,sans-Serif" font-size="8.00">0.2</text>
</g>
<!-- 1&#45;&gt;4 -->
<g id="edge4" class="edge">
<title>1&#45;&gt;4</title>
<path fill="none" stroke="#cccccc" stroke-width="0.58" d="M210.24,-82.33C226.23,-69.47 249.52,-50.75 266.63,-36.99"/>
<polygon fill="#cccccc" stroke="#cccccc" stroke-width="0.58" points="268.04,-38.1 270.84,-33.61 265.84,-35.37 268.04,-38.1"/>
<text text-anchor="middle" x="251.79" y="-55.6" font-family="Helvetica,sans-Serif" font-size="8.00">0.19</text>
</g>
<!-- 1&#45;&gt;5 -->
<g id="edge5" class="edge">
<title>1&#45;&gt;5</title>
<path fill="none" stroke="#cccccc" stroke-width="0.22" d="M220.88,-87.19C255.64,-75.32 315.74,-54.61 367,-36 370.95,-34.57 375.08,-33.04 379.18,-31.51"/>
<polygon fill="#cccccc" stroke="#cccccc" stroke-width="0.22" points="379.89,-33.11 383.96,-29.72 378.66,-29.84 379.89,-33.11"/>
<text text-anchor="middle" x="322.79" y="-55.6" font-family="Helvetica,sans-Serif" font-size="8.00">0.07</text>
</g>
<!-- 2&#45;&gt;2 -->
<g id="edge6" class="edge">
<title>2&#45;&gt;2</title>
<path fill="none" stroke="#cccccc" stroke-width="0" d="M73.96,-25.38C83.16,-24.82 90,-22.36 90,-18 90,-13.64 83.16,-11.18 73.96,-10.62"/>
<polygon fill="#cccccc" stroke="#cccccc" stroke-width="0" points="73.91,-23.63 68.96,-25.5 74,-27.13 73.91,-23.63"/>
<polygon fill="#cccccc" stroke="#cccccc" stroke-width="0" points="74,-8.87 68.96,-10.5 73.91,-12.37 74,-8.87"/>
<text text-anchor="middle" x="92.22" y="-15.6" font-family="Helvetica,sans-Serif" font-size="8.00">0</text>
</g>
<!-- 3&#45;&gt;3 -->
<g id="edge7" class="edge">
<title>3&#45;&gt;3</title>
<path fill="none" stroke="#cccccc" stroke-width="2.87" d="M185.96,-25.38C195.16,-24.82 202,-22.36 202,-18 202,-13.64 195.16,-11.18 185.96,-10.62"/>
<polygon fill="#cccccc" stroke="#cccccc" stroke-width="2.87" points="185.91,-23.63 180.96,-25.5 186,-27.13 185.91,-23.63"/>
<polygon fill="#cccccc" stroke="#cccccc" stroke-width="2.87" points="186,-8.87 180.96,-10.5 185.91,-12.37 186,-8.87"/>
<text text-anchor="middle" x="209.79" y="-15.6" font-family="Helvetica,sans-Serif" font-size="8.00">0.96</text>
</g>
<!-- 3&#45;&gt;4 -->
<g id="edge8" class="edge">
<title>3&#45;&gt;4</title>
<path fill="none" stroke="#cccccc" stroke-width="0.85" d="M189.34,-18C207.73,-18 229.33,-18 247.72,-18"/>
<polygon fill="#cccccc" stroke="#cccccc" stroke-width="0.85" points="189.31,-16.25 184.31,-18 189.31,-19.75 189.31,-16.25"/>
<polygon fill="#cccccc" stroke="#cccccc" stroke-width="0.85" points="247.81,-19.75 252.81,-18 247.81,-16.25 247.81,-19.75"/>
<text text-anchor="middle" x="218.5" y="-22.6" font-family="Helvetica,sans-Serif" font-size="8.00">&#45;0.28</text>
</g>
<!-- 4&#45;&gt;4 -->
<g id="edge9" class="edge">
<title>4&#45;&gt;4</title>
<path fill="none" stroke="#cccccc" stroke-width="2.89" d="M326.96,-25.38C336.16,-24.82 343,-22.36 343,-18 343,-13.64 336.16,-11.18 326.96,-10.62"/>
<polygon fill="#cccccc" stroke="#cccccc" stroke-width="2.89" points="326.91,-23.63 321.96,-25.5 327,-27.13 326.91,-23.63"/>
<polygon fill="#cccccc" stroke="#cccccc" stroke-width="2.89" points="327,-8.87 321.96,-10.5 326.91,-12.37 327,-8.87"/>
<text text-anchor="middle" x="350.79" y="-15.6" font-family="Helvetica,sans-Serif" font-size="8.00">0.96</text>
</g>
<!-- 5&#45;&gt;5 -->
<g id="edge10" class="edge">
<title>5&#45;&gt;5</title>
<path fill="none" stroke="#cccccc" stroke-width="2.98" d="M449.96,-25.38C459.16,-24.82 466,-22.36 466,-18 466,-13.64 459.16,-11.18 449.96,-10.62"/>
<polygon fill="#cccccc" stroke="#cccccc" stroke-width="2.98" points="449.91,-23.63 444.96,-25.5 450,-27.13 449.91,-23.63"/>
<polygon fill="#cccccc" stroke="#cccccc" stroke-width="2.98" points="450,-8.87 444.96,-10.5 449.91,-12.37 450,-8.87"/>
<text text-anchor="middle" x="473.79" y="-15.6" font-family="Helvetica,sans-Serif" font-size="8.00">0.99</text>
</g>
<!-- 1 -->
<g id="node1" class="node">
<title>1</title>
<ellipse fill="white" stroke="#b3b3b3" cx="192" cy="-98" rx="36" ry="18"/>
<text text-anchor="middle" x="192" y="-95" font-family="Helvetica,sans-Serif" font-size="10.00">A1</text>
</g>
<!-- 2 -->
<g id="node2" class="node">
<title>2</title>
<ellipse fill="#7570b3" stroke="#b3b3b3" cx="36" cy="-18" rx="36" ry="18"/>
<text text-anchor="middle" x="36" y="-16.7" font-family="Helvetica,sans-Serif" font-size="10.00">Weight⇊</text>
</g>
<!-- 3 -->
<g id="node3" class="node">
<title>3</title>
<ellipse fill="#7570b3" stroke="#b3b3b3" cx="148" cy="-18" rx="36" ry="18"/>
<text text-anchor="middle" x="148" y="-16.7" font-family="Helvetica,sans-Serif" font-size="10.00">Motor⇈</text>
</g>
<!-- 4 -->
<g id="node4" class="node">
<title>4</title>
<ellipse fill="#7570b3" stroke="#b3b3b3" cx="289" cy="-18" rx="36" ry="18"/>
<text text-anchor="middle" x="289" y="-16.7" font-family="Helvetica,sans-Serif" font-size="10.00">Motor⇊</text>
</g>
<!-- 5 -->
<g id="node5" class="node">
<title>5</title>
<ellipse fill="#7570b3" stroke="#b3b3b3" cx="412" cy="-18" rx="36" ry="18"/>
<text text-anchor="middle" x="412" y="-15" font-family="Helvetica,sans-Serif" font-size="10.00">Suicidality</text>
</g>
</g>
</svg>
